<svg xmlns="http://www.w3.org/2000/svg" version="1.1" xmlns:xlink="http://www.w3.org/1999/xlink" xmlns:svgjs="http://svgjs.dev/svgjs" width="1000" height="1125" viewBox="0 0 1000 1125"><g transform="matrix(1,0,0,1,1.7053025658242404e-13,0)"><svg viewBox="0 0 320 360" data-background-color="#ffffff" preserveAspectRatio="xMidYMid meet" height="1125" width="1000" xmlns="http://www.w3.org/2000/svg" xmlns:xlink="http://www.w3.org/1999/xlink"><g id="tight-bounds" transform="matrix(1,0,0,1,0,0)"><svg viewBox="0 0 320 360" height="360" width="320"><g><svg></svg></g><g><svg viewBox="0 0 320 360" height="360" width="320"><g><path xmlns="http://www.w3.org/2000/svg" d="M20.961 227.22l3.726 4.658-1.863-6.056c-0.466-2.795-3.726 0.466-1.863 1.398M25.153 224.425c1.397 2.329 2.795 4.658 2.795 6.987 0 3.261 2.795 4.658 5.123 5.589-3.261-3.726-5.124-13.974-7.918-12.576M204.017 26.929c7.918 0 15.371-0.932 23.756 0.931 20.495 5.124 37.729 15.371 49.374 29.811l32.606 52.169c1.397 13.042 4.192 27.482 3.726 43.319 3.261 0 2.795-4.658 6.521-5.59-3.726 9.316-5.59 20.961-6.521 34.469-2.329-7.453 0-18.632 0.466-24.687-3.261 5.124-5.124 1.397-5.124-0.932 0.466-3.726-1.397-3.261-2.795-4.658-5.124-4.658-8.384-9.782-12.11-17.7 2.329-6.055 2.795-14.905-4.658-19.563-2.329-1.397-5.124-3.726-6.521-7.453-1.863-5.124-5.124-11.179-4.193-19.097 0.466-2.329-6.987 5.124-11.179 1.863-18.166-12.576-36.332-27.016-58.224-39.127-11.645 0-20.029-4.192-24.221-9.316-3.726-4.658-0.932-10.713 4.658-11.179 3.261 0 6.987-0.932 9.782 0.932 0.466-1.863 2.329-4.192 4.657-4.192M157.904 16.215l0.932 0.466c4.658 0.932 6.987 7.453 12.11 5.124 0 3.261 0.466 6.521-0.466 8.85-1.397 3.726-5.59 3.726-8.85 3.726-31.208-1.863-49.374 11.179-68.471 22.358-5.124 3.261-10.713 5.59-14.906 9.782-20.029 18.632-41.921 35.866-47.045 70.335l-4.192 38.195c-0.466 4.192-5.124 8.384-4.192 13.508l3.26 22.824c-3.261-3.261-5.124 0.932-4.192 2.795 0.466 1.397 2.329 6.055 5.124 1.863 3.726 6.987 7.453 20.495 12.576 26.55 15.837 18.632 36.332 35.4 53.101 52.169 4.192-0.932 7.453-0.932 8.384-3.727 1.397 2.795-1.397 5.59-3.726 6.056 7.453 4.658 15.837 8.85 27.016 9.781 14.44 0.932 27.948 3.261 40.524 6.522 6.521-1.863 13.042-2.795 20.029-3.261 2.329 0 3.726-3.726 6.521-4.658l0.466-4.658c2.795 4.192 2.329-1.397 0.466-4.192 3.261 2.795 4.192 5.124 5.589 6.987 0-1.397 3.726-6.521 3.727-0.466l0.931-6.055c1.397-0.932 1.863 5.124 3.261 0.931 1.397-4.192 4.192-0.932 6.987-2.329-0.932 1.863-0.466 5.59 2.794 3.261l3.727-3.261c2.329 5.59 6.055 3.261 7.918 2.329 20.495-13.042 40.99-28.413 60.553-43.784l-0.466 6.055 2.329-7.453c2.329 2.329 4.192 0.466 5.124-0.931 2.795-4.658 6.521-9.316 12.577-13.508-7.453 20.029-16.303 35.866-27.482 48.908l-4.658 5.59c0 3.261-0.932 7.453-4.658 7.918-1.863 0.466-5.59-0.932-8.384 1.863-1.397 1.863 3.261 5.59-0.466 2.795-3.261-2.329-6.521 0-10.248 0.932-2.795 0.932 1.863 3.726 2.795 5.589 0.932 1.863 1.863 3.726 1.398 6.056l-5.124-5.59c-6.055 3.261-9.782 9.316-14.906 13.974-2.329 1.863-1.397 5.124-1.397 7.918-3.261 0-6.987-0.932-8.85 0.932-1.397 1.863-0.932 4.658-0.932 7.453-4.658-0.466-5.124-7.453-9.315-6.056-4.192 0.932-8.85 1.397-12.577 3.727 2.795 5.59-4.658 2.329-3.726 3.26-6.987-4.192-13.042-7.453-20.495-4.658-15.837-5.124-35.4-2.795-49.84-0.931 0-2.329 0.466-4.658-0.466-5.124-0.932 2.329-3.726 1.397-3.26 1.397-8.85-6.055-17.7-9.782-27.016-14.905-8.384 0.932-16.303-3.261-18.632-5.59-6.521-6.055-13.974-2.795-20.029-4.192-13.042-3.261-17.7-16.769-19.098-26.084-0.932-4.658-4.658-6.521-6.055-6.056-6.055-19.563-15.371-37.263-22.824-55.429-1.863-4.658-1.397-9.316-1.397-14.44 2.329 0.932 4.658 0.466 4.192-2.794-2.329-15.371-7.918-27.016-13.974-38.195 3.261-15.837 3.726-34.469 11.179-48.443 6.521-12.576 18.632-19.098 27.016-29.811 2.795-3.726 2.795-8.85 5.59-12.11 9.316-9.316 18.632-19.098 28.879-27.482 4.658-3.726 10.247 0 17.234-1.397 2.329-8.384 11.645-15.837 20.495-13.508 3.726 0.932 11.179-8.85 13.508-9.782 3.726-1.397 1.863 3.726 1.863 6.987 8.85-6.987 20.961-10.713 32.14-14.906" fill="#5ce1e6" fill-rule="nonzero" stroke="none" stroke-width="1" stroke-linecap="butt" stroke-linejoin="miter" stroke-miterlimit="10" stroke-dasharray="" stroke-dashoffset="0" font-family="none" font-weight="none" font-size="none" text-anchor="none" style="mix-blend-mode: normal" data-fill-palette-color="tertiary"></path></g><g transform="matrix(1,0,0,1,64,146.2335124572545)"><svg viewBox="0 0 192 67.53297508549096" height="67.53297508549096" width="192"><g><svg viewBox="0 0 192 67.53297508549096" height="67.53297508549096" width="192"><g><svg viewBox="0 0 192 67.53297508549096" height="67.53297508549096" width="192"><g><svg viewBox="0 0 192 67.53297508549096" height="67.53297508549096" width="192"><g id="textblocktransform"><svg viewBox="0 0 192 67.53297508549096" height="67.53297508549096" width="192" id="textblock"><g><svg viewBox="0 0 192 67.53297508549096" height="67.53297508549096" width="192"><g transform="matrix(1,0,0,1,0,0)"><svg width="192" viewBox="1.850000023841858 -35.5 102.34000396728516 36" height="67.53297508549096" data-palette-color="#5ce1e6"><path d="M10.95 0.5L10.95 0.5Q8.45 0.5 6.4-0.5 4.35-1.5 3.1-3.2 1.85-4.9 1.85-7.05L1.85-7.05Q1.85-10.5 4.65-12.55 7.45-14.6 11.95-15.25L11.95-15.25 19.4-16.3 19.4-17.75Q19.4-20.15 18.03-21.5 16.65-22.85 13.55-22.85L13.55-22.85Q11.35-22.85 9.95-21.95 8.55-21.05 8-19.65L8-19.65Q7.7-18.9 6.95-18.9L6.95-18.9 4.7-18.9Q4.15-18.9 3.88-19.23 3.6-19.55 3.6-20L3.6-20Q3.6-20.75 4.17-21.85 4.75-22.95 5.95-24 7.15-25.05 9.03-25.78 10.9-26.5 13.6-26.5L13.6-26.5Q16.6-26.5 18.65-25.73 20.7-24.95 21.88-23.65 23.05-22.35 23.58-20.7 24.1-19.05 24.1-17.35L24.1-17.35 24.1-1.15Q24.1-0.65 23.78-0.33 23.45 0 22.95 0L22.95 0 20.65 0Q20.1 0 19.8-0.33 19.5-0.65 19.5-1.15L19.5-1.15 19.5-3.3Q18.85-2.4 17.75-1.53 16.65-0.65 15-0.08 13.35 0.5 10.95 0.5ZM12-3.25L12-3.25Q14.05-3.25 15.75-4.13 17.45-5 18.43-6.85 19.4-8.7 19.4-11.5L19.4-11.5 19.4-12.9 13.6-12.05Q10.05-11.55 8.25-10.38 6.45-9.2 6.45-7.4L6.45-7.4Q6.45-6 7.28-5.08 8.1-4.15 9.38-3.7 10.65-3.25 12-3.25ZM41 0.5L41 0.5Q37.8 0.5 35.57-0.93 33.35-2.35 32.2-4.9 31.05-7.45 31.05-10.75L31.05-10.75 31.05-24.85Q31.05-25.35 31.37-25.68 31.7-26 32.2-26L32.2-26 34.7-26Q35.2-26 35.52-25.68 35.85-25.35 35.85-24.85L35.85-24.85 35.85-11Q35.85-3.55 42.35-3.55L42.35-3.55Q45.45-3.55 47.32-5.53 49.2-7.5 49.2-11L49.2-11 49.2-24.85Q49.2-25.35 49.52-25.68 49.85-26 50.35-26L50.35-26 52.85-26Q53.35-26 53.65-25.68 53.95-25.35 53.95-24.85L53.95-24.85 53.95-1.15Q53.95-0.65 53.65-0.33 53.35 0 52.85 0L52.85 0 50.5 0Q50 0 49.67-0.33 49.35-0.65 49.35-1.15L49.35-1.15 49.35-3.35Q48-1.6 46.07-0.55 44.15 0.5 41 0.5ZM75 0L71.55 0Q68.75 0 67-1.07 65.25-2.15 64.45-4.13 63.65-6.1 63.65-8.8L63.65-8.8 63.65-22 59.75-22Q59.25-22 58.92-22.33 58.6-22.65 58.6-23.15L58.6-23.15 58.6-24.85Q58.6-25.35 58.92-25.68 59.25-26 59.75-26L59.75-26 63.65-26 63.65-34.35Q63.65-34.85 63.97-35.18 64.3-35.5 64.8-35.5L64.8-35.5 67.15-35.5Q67.65-35.5 67.97-35.18 68.3-34.85 68.3-34.35L68.3-34.35 68.3-26 74.5-26Q75.05-26 75.35-25.68 75.65-25.35 75.65-24.85L75.65-24.85 75.65-23.15Q75.65-22.65 75.35-22.33 75.05-22 74.5-22L74.5-22 68.3-22 68.3-9.15Q68.3-6.8 69.1-5.45 69.9-4.1 71.95-4.1L71.95-4.1 75-4.1Q75.5-4.1 75.82-3.78 76.15-3.45 76.15-2.95L76.15-2.95 76.15-1.15Q76.15-0.65 75.82-0.33 75.5 0 75 0L75 0ZM84.64 0L82.14 0Q81.64 0 81.32-0.33 80.99-0.65 80.99-1.15L80.99-1.15 80.99-34.35Q80.99-34.85 81.32-35.18 81.64-35.5 82.14-35.5L82.14-35.5 84.64-35.5Q85.19-35.5 85.49-35.18 85.79-34.85 85.79-34.35L85.79-34.35 85.79-22.7Q87.14-24.4 89.09-25.45 91.04-26.5 94.04-26.5L94.04-26.5Q97.29-26.5 99.57-25.08 101.84-23.65 103.02-21.13 104.19-18.6 104.19-15.25L104.19-15.25 104.19-1.15Q104.19-0.65 103.89-0.33 103.59 0 103.04 0L103.04 0 100.54 0Q100.04 0 99.72-0.33 99.39-0.65 99.39-1.15L99.39-1.15 99.39-15Q99.39-18.5 97.69-20.48 95.99-22.45 92.69-22.45L92.69-22.45Q89.59-22.45 87.69-20.48 85.79-18.5 85.79-15L85.79-15 85.79-1.15Q85.79-0.65 85.49-0.33 85.19 0 84.64 0L84.64 0Z" opacity="1" transform="matrix(1,0,0,1,0,0)" fill="#5ce1e6" class="wordmark-text-0" data-fill-palette-color="primary" id="text-0"></path></svg></g></svg></g></svg></g></svg></g><g></g></svg></g></svg></g></svg></g></svg></g><defs></defs></svg><rect width="320" height="360" fill="none" stroke="none" visibility="hidden"></rect></g></svg></g></svg>